<svg width="28" height="28" viewBox="0 0 28 28" fill="none"
    xmlns="http://www.w3.org/2000/svg">
    <path d="M19.56 14.8067C20.1528 14.8067 20.6334 14.3262 20.6334 13.7334C20.6334 13.1406 20.1528 12.66 19.56 12.66C18.9672 12.66 18.4867 13.1406 18.4867 13.7334C18.4867 14.3262 18.9672 14.8067 19.56 14.8067Z" fill="#2990FF"/>
    <path fill-rule="evenodd" clip-rule="evenodd" d="M6.22 3C4.44165 3 3 4.44165 3 6.22V15.2547C3.6447 14.805 4.36863 14.461 5.14667 14.248V6.22C5.14667 5.62722 5.62722 5.14667 6.22 5.14667H22.78C23.3728 5.14667 23.8533 5.62721 23.8533 6.22V9.44H18.4867C16.1156 9.44 14.1933 11.3622 14.1933 13.7333C14.1933 16.1044 16.1156 18.0267 18.4867 18.0267H23.8533V21.2467C23.8533 21.8395 23.3728 22.32 22.78 22.32H13.8757C13.7293 23.0874 13.4576 23.8103 13.0827 24.4667H22.78C24.5584 24.4667 26 23.0251 26 21.2467V6.22C26 4.44165 24.5584 3 22.78 3H6.22ZM23.8533 11.5867H18.4867C17.3011 11.5867 16.34 12.5477 16.34 13.7333C16.34 14.9189 17.3011 15.88 18.4867 15.88H23.8533V11.5867Z" fill="#2990FF"/>
    <path fill-rule="evenodd" clip-rule="evenodd" d="M6.99996 15.1666C3.7783 15.1666 1.16663 17.7783 1.16663 21C1.16663 24.2216 3.7783 26.8333 6.99996 26.8333C10.2216 26.8333 12.8333 24.2216 12.8333 21C12.8333 17.7783 10.2216 15.1666 6.99996 15.1666ZM9.20143 19.911C9.40544 19.6617 9.36869 19.2942 9.11935 19.0902C8.87001 18.8862 8.50249 18.9229 8.29848 19.1723L6.08165 21.8817L5.37077 21.1708C5.14297 20.943 4.77362 20.943 4.54581 21.1708C4.31801 21.3986 4.31801 21.768 4.54581 21.9958L5.71248 23.1625C5.82902 23.279 5.98941 23.3408 6.15402 23.3326C6.31862 23.3244 6.47207 23.2469 6.57643 23.1194L9.20143 19.911Z" fill="#2990FF"/>
</svg>
